<svg height="100%" width="100%" xmlns="http://www.w3.org/2000/svg" class="gp-h-6 gp-w-6" viewBox="0 0 512 512" color="#fff">
        <path fill="currentColor" stroke-linecap="round" stroke-linejoin="round" d="M62.2467 345.253C43.7072 326.714 29.1474 305.116 18.9714 281.057C8.42839 256.13 3.08301 229.671 3.08301 202.418C3.08301 175.165 8.43012 148.707 18.974 123.78C29.15 99.7213 43.7098 78.123 62.2485 59.5834C80.788 41.0439 102.386 26.4841 126.445 16.3081C151.372 5.76422 177.831 0.417969 205.084 0.417969C232.337 0.417969 258.794 5.76421 283.722 16.3064C307.78 26.4823 329.379 41.0422 347.918 59.5817C366.458 78.1212 381.017 99.7196 391.194 123.778C401.737 148.706 407.083 175.163 407.083 202.417C407.083 229.671 401.737 256.129 391.194 281.056C388.406 287.648 385.277 294.048 381.839 300.257L493.397 411.815C514.091 432.511 514.091 466.187 493.395 486.883L484.272 496.006C474.245 506.032 460.915 511.553 446.738 511.553C432.559 511.553 419.228 506.032 409.202 496.006L296.022 382.824C291.996 384.854 287.898 386.762 283.721 388.528C258.794 399.073 232.336 404.419 205.082 404.419C177.828 404.419 151.371 399.071 126.443 388.528C102.385 378.352 80.7863 363.793 62.2467 345.253ZM301.699 336.166C313.928 327.317 324.896 316.835 334.282 305.034C342.149 295.142 348.9 284.325 354.355 272.775C364.433 251.432 370.076 227.586 370.076 202.419C370.076 111.296 296.206 37.4253 205.083 37.4253C113.96 37.4253 40.0895 111.294 40.0895 202.418C40.0895 293.541 113.96 367.411 205.084 367.411C227.413 367.411 248.701 362.967 268.126 354.928C280.091 349.976 291.347 343.658 301.699 336.166ZM467.229 460.716C473.507 454.439 473.507 444.26 467.229 437.982L360.595 331.348C356.601 336.153 352.378 340.794 347.919 345.253C341.671 351.502 335.068 357.286 328.147 362.615L435.371 469.839C438.511 472.977 442.624 474.547 446.739 474.547C450.853 474.547 454.967 472.978 458.106 469.839L467.229 460.716ZM223.582 183.91H281.071C291.292 183.91 299.574 192.194 299.575 202.414C299.575 206.778 298.062 210.786 295.533 213.951C292.143 218.195 286.926 220.916 281.072 220.916H228.303H223.583V225.63V278.406C223.583 287.081 217.613 294.358 209.559 296.361C208.124 296.717 206.625 296.909 205.08 296.909C194.861 296.909 186.577 288.625 186.577 278.406V220.917H129.087C118.868 220.917 110.584 212.633 110.584 202.414C110.584 192.195 118.868 183.911 129.087 183.911H186.576V126.421C186.576 116.202 194.86 107.918 205.079 107.918C215.298 107.918 223.582 116.202 223.582 126.421V183.91Z"></path>
      </svg>