<svg class="gp-ml-1 gp-inline-block" style="display: inline-block; margin-left: 1px;" height="1em" width="1em" viewBox="0 0 22 12" fill="none" xmlns="http://www.w3.org/2000/svg">
          <path d="M1.70711 0.292893C1.31658 -0.0976311 0.683417 -0.0976311 0.292893 0.292893C-0.0976311 0.683417 -0.0976311 1.31658 0.292893 1.70711L1.70711 0.292893ZM11 11L10.2929 11.7071C10.6834 12.0976 11.3166 12.0976 11.7071 11.7071L11 11ZM21.7071 1.70711C22.0976 1.31658 22.0976 0.683417 21.7071 0.292893C21.3166 -0.0976311 20.6834 -0.0976311 20.2929 0.292893L21.7071 1.70711ZM0.292893 1.70711L10.2929 11.7071L11.7071 10.2929L1.70711 0.292893L0.292893 1.70711ZM11.7071 11.7071L21.7071 1.70711L20.2929 0.292893L10.2929 10.2929L11.7071 11.7071Z" fill="currentColor"></path>
        </svg>