<svg xmlns="http://www.w3.org/2000/svg" xmlns:xlink="http://www.w3.org/1999/xlink" style="position: absolute; width: 0; height: 0" aria-hidden="true" id="__SVG_SPRITE_NODE__"><symbol xmlns="http://www.w3.org/2000/svg" viewBox="0 0 16 16" id="close"><path d="m9.41 8 6.3-6.29A1.004 1.004 0 1 0 14.29.29L8 6.59 1.71.29A1.004 1.004 0 0 0 .29 1.71L6.59 8l-6.3 6.29a1 1 0 0 0 0 1.42 1 1 0 0 0 1.42 0L8 9.41l6.29 6.3a1 1 0 0 0 1.42 0 1 1 0 0 0 0-1.42Z"></path></symbol><symbol viewBox="0 0 35 35" id="ty_star_rating"><path fill="currentColor" d="m17.5 0-4.131 13.369H0l10.816 8.262L6.684 35 17.5 26.738 28.315 35l-4.131-13.369L35 13.369H21.631L17.5 0z"></path><path d="M17.5 0v26.738L6.684 35l4.132-13.369L0 13.369h13.369L17.5 0z"></path></symbol><symbol xmlns="http://www.w3.org/2000/svg" viewBox="0 0 16 12" id="done"><path d="M5.05 12 .29 7.39A1 1 0 0 1 .29 6a1 1 0 0 1 1.42 0l3.34 3.26 9.24-9a1 1 0 0 1 1.41 0 .94.94 0 0 1 0 1.37Z"></path></symbol><symbol xmlns="http://www.w3.org/2000/svg" fill="none" viewBox="0 0 10 16" id="arrow_carousel_left"><path fill-rule="evenodd" clip-rule="evenodd" d="M8.811 16c.304 0 .609-.112.84-.335a1.11 1.11 0 0 0 0-1.616L3.361 8l6.29-6.049a1.11 1.11 0 0 0 0-1.616 1.22 1.22 0 0 0-1.68 0L0 8l7.971 7.665c.232.223.536.335.84.335" fill="#AFB3B7"></path></symbol><symbol xmlns="http://www.w3.org/2000/svg" fill="none" viewBox="0 0 10 16" id="arrow_carousel_right"><path fill-rule="evenodd" clip-rule="evenodd" d="M1.189 16a1.21 1.21 0 0 1-.84-.335 1.11 1.11 0 0 1 0-1.616L6.639 8 .349 1.951a1.11 1.11 0 0 1 0-1.616 1.22 1.22 0 0 1 1.68 0L10 8l-7.971 7.665a1.21 1.21 0 0 1-.84.335" fill="#AFB3B7"></path></symbol><symbol xmlns="http://www.w3.org/2000/svg" viewBox="0 0 10 16" id="arrow_carousel_unfilled_left"><path fill-rule="evenodd" clip-rule="evenodd" d="M8.811 16c.304 0 .609-.112.84-.335a1.11 1.11 0 0 0 0-1.616L3.361 8l6.29-6.049a1.11 1.11 0 0 0 0-1.616 1.22 1.22 0 0 0-1.68 0L0 8l7.971 7.665c.232.223.536.335.84.335"></path></symbol><symbol xmlns="http://www.w3.org/2000/svg" viewBox="0 0 10 16" id="arrow_carousel_unfilled_right"><path fill-rule="evenodd" clip-rule="evenodd" d="M1.189 16a1.21 1.21 0 0 1-.84-.335 1.11 1.11 0 0 1 0-1.616L6.639 8 .349 1.951a1.11 1.11 0 0 1 0-1.616 1.22 1.22 0 0 1 1.68 0L10 8l-7.971 7.665a1.21 1.21 0 0 1-.84.335"></path></symbol><symbol xmlns="http://www.w3.org/2000/svg" fill="none" viewBox="0 0 17 18" id="upload-file-custom-options--raw"><path fill-rule="evenodd" clip-rule="evenodd" d="m12.063 6.23-.007-.007a.826.826 0 0 0-1.17-.041L9.334 7.638V1.492a.826.826 0 0 0-.826-.825H8.49a.825.825 0 0 0-.825.825v6.146L6.149 6.19a.825.825 0 0 0-1.172.033l-.004.004a.827.827 0 0 0 .036 1.165l3.525 3.327 3.493-3.33a.825.825 0 0 0 .036-1.159Zm3.936 11.103H1a.833.833 0 0 1-.833-.833V9.833c0-.46.373-.833.833-.833h1.667a.834.834 0 0 1 0 1.667h-.833v5h13.333v-5h-.833a.833.833 0 1 1 0-1.667h1.666c.46 0 .834.373.834.833V16.5c0 .46-.374.833-.834.833Z" fill="currentColor"></path></symbol><symbol xmlns="http://www.w3.org/2000/svg" fill="none" viewBox="0 0 16 16" id="upload-file-image--raw"><path d="M13.833 2.167v11.666H2.167V2.167h11.666Zm0-1.667H2.167C1.25.5.5 1.25.5 2.167v11.666c0 .917.75 1.667 1.667 1.667h11.666c.917 0 1.667-.75 1.667-1.667V2.167C15.5 1.25 14.75.5 13.833.5Zm-4.05 7.383-2.5 3.225L5.5 8.95 3 12.167h10L9.783 7.883Z" fill="currentColor"></path></symbol><symbol xmlns="http://www.w3.org/2000/svg" viewBox="0 0 16 16" fill="currentColor" id="upload-file-custom-options-delete--raw"><path d="M15.2 3.2H12V.8a.8.8 0 0 0-.8-.8H4.8a.8.8 0 0 0-.8.8v2.4H.8a.8.8 0 0 0 0 1.6h1.6v10.4a.8.8 0 0 0 .8.8h9.6a.8.8 0 0 0 .8-.8V4.8h1.6a.8.8 0 1 0 0-1.6ZM5.6 1.6h4.8v1.6H5.6ZM12 14.4H4V4.8h8Z"></path><path d="M9.6 12.8a.8.8 0 0 0 .8-.8V7.2a.8.8 0 1 0-1.6 0V12a.8.8 0 0 0 .8.8ZM6.4 12.8a.8.8 0 0 0 .8-.8V7.2a.8.8 0 0 0-1.6 0V12a.8.8 0 0 0 .8.8Z"></path></symbol></svg>