<svg width="100%" height="100%" viewBox="0 0 24 24" fill="none" xmlns="http://www.w3.org/2000/svg">
    <path fill-rule="evenodd" clip-rule="evenodd" d="M12 0C18.6274 0 24 5.37258 24 12C24 18.6274 18.6274 24 12 24C5.37258 24 0 18.6274 0 12C0 5.37258 5.37258 0 12 0ZM10.6828 8.13017C10.5266 7.95661 10.2734 7.95661 10.1172 8.13017C9.96095 8.30374 9.96095 8.58515 10.1172 8.75871L13.0343 12L10.1172 15.2413C9.96095 15.4149 9.96095 15.6963 10.1172 15.8698C10.2734 16.0434 10.5266 16.0434 10.6828 15.8698L13.8828 12.3143C14.0391 12.1407 14.0391 11.8593 13.8828 11.6857L10.6828 8.13017Z" fill="currentColor"></path>
    </svg>